<?xml version="1.0" encoding="UTF-8" standalone="no"?>
<!-- Created with Inkscape (http://www.inkscape.org/) -->

<svg
   width="228.39999mm"
   height="171.3mm"
   viewBox="0 0 228.39999 171.3"
   version="1.1"
   id="svg1"
   inkscape:version="1.3.2 (091e20e, 2023-11-25, custom)"
   sodipodi:docname="TinyRosie_v1.svg"
   xml:space="preserve"
   xmlns:inkscape="http://www.inkscape.org/namespaces/inkscape"
   xmlns:sodipodi="http://sodipodi.sourceforge.net/DTD/sodipodi-0.dtd"
   xmlns="http://www.w3.org/2000/svg"
   xmlns:svg="http://www.w3.org/2000/svg"><sodipodi:namedview
     id="namedview1"
     pagecolor="#ffffff"
     bordercolor="#666666"
     borderopacity="1.0"
     inkscape:showpageshadow="2"
     inkscape:pageopacity="0.0"
     inkscape:pagecheckerboard="0"
     inkscape:deskcolor="#d1d1d1"
     inkscape:document-units="mm"
     inkscape:zoom="3.9661286"
     inkscape:cx="303.57059"
     inkscape:cy="234.23346"
     inkscape:window-width="1920"
     inkscape:window-height="986"
     inkscape:window-x="-11"
     inkscape:window-y="-11"
     inkscape:window-maximized="1"
     inkscape:current-layer="layer3" /><defs
     id="defs1"><inkscape:path-effect
       effect="bspline"
       id="path-effect334"
       is_visible="true"
       lpeversion="1.3"
       weight="33.333333"
       steps="2"
       helper_size="0"
       apply_no_weight="true"
       apply_with_weight="true"
       only_selected="false"
       uniform="false" /></defs><g
     inkscape:label="Layer 1"
     inkscape:groupmode="layer"
     id="layer1"
     transform="translate(-0.5,-0.5)" /><g
     inkscape:groupmode="layer"
     id="layer3"
     inkscape:label="Holes"><rect
       style="fill:#ffffff;stroke:#c40000;stroke-width:0.742282;stroke-opacity:1"
       id="rect2"
       width="7.4613628"
       height="14.258488"
       x="85.57531"
       y="40.173447"
       ry="2.7151213" /><circle
       style="fill:none;stroke:#f43100;stroke-width:1.17627"
       id="path328-9-8"
       cx="100.07756"
       cy="47.132103"
       r="5.5" /><circle
       style="fill:none;stroke:#f43100;stroke-width:1.17627"
       id="path328-9-8-8"
       cx="13.605558"
       cy="47.22541"
       r="5.5" /></g><g
     inkscape:groupmode="layer"
     id="layer2"
     inkscape:label="TextRegular"
     style="display:none"><text
       xml:space="preserve"
       style="font-style:normal;font-variant:normal;font-weight:normal;font-stretch:normal;font-size:6px;line-height:1.25;font-family:'Century Schoolbook';-inkscape-font-specification:'Century Schoolbook';letter-spacing:0px;word-spacing:0px;writing-mode:lr-tb;stroke-width:0.265;stroke-dasharray:none"
       x="57.705193"
       y="45.330116"
       id="text328-0-3"><tspan
         sodipodi:role="line"
         style="font-style:normal;font-variant:normal;font-weight:normal;font-stretch:normal;font-size:6px;font-family:Cairo;-inkscape-font-specification:Cairo;text-align:center;text-anchor:middle;stroke-width:0.265;stroke-dasharray:none"
         x="57.705193"
         y="45.330116"
         id="tspan17">DolphinDAQ</tspan><tspan
         sodipodi:role="line"
         style="font-style:normal;font-variant:normal;font-weight:normal;font-stretch:normal;font-size:6px;font-family:Cairo;-inkscape-font-specification:Cairo;text-align:center;text-anchor:middle;stroke-width:0.265;stroke-dasharray:none"
         x="57.705193"
         y="53.408161"
         id="tspan18">2024 Feister</tspan></text><text
       xml:space="preserve"
       style="font-style:normal;font-variant:normal;font-weight:normal;font-stretch:normal;font-size:6px;line-height:1.25;font-family:'Century Schoolbook';-inkscape-font-specification:'Century Schoolbook';letter-spacing:0px;word-spacing:0px;writing-mode:lr-tb;display:inline;stroke-width:0.265;stroke-dasharray:none"
       x="-47.58585"
       y="27.811422"
       id="text328-0-3-9"
       transform="rotate(-90)"><tspan
         sodipodi:role="line"
         style="font-style:normal;font-variant:normal;font-weight:normal;font-stretch:normal;font-size:6px;font-family:Cairo;-inkscape-font-specification:Cairo;text-align:center;text-anchor:middle;stroke-width:0.265;stroke-dasharray:none"
         x="-47.58585"
         y="27.811422"
         id="tspan18-0">Out</tspan></text><text
       xml:space="preserve"
       style="font-style:normal;font-variant:normal;font-weight:normal;font-stretch:normal;font-size:7.99999px;line-height:1.25;font-family:'Century Schoolbook';-inkscape-font-specification:'Century Schoolbook';letter-spacing:0px;word-spacing:0px;writing-mode:lr-tb;display:inline;stroke-width:0.265;stroke-dasharray:none"
       x="57.195412"
       y="82.780579"
       id="text328-0-2-1"><tspan
         sodipodi:role="line"
         style="font-style:normal;font-variant:normal;font-weight:normal;font-stretch:normal;font-size:12px;font-family:Broadway;-inkscape-font-specification:Broadway;text-align:center;text-anchor:middle;stroke-width:0.265;stroke-dasharray:none"
         x="57.195412"
         y="82.780579"
         id="tspan333-7">&lt;&lt;&lt;&lt;&lt;</tspan></text><text
       xml:space="preserve"
       style="font-style:normal;font-variant:normal;font-weight:normal;font-stretch:normal;font-size:7.99999px;line-height:1.25;font-family:'Century Schoolbook';-inkscape-font-specification:'Century Schoolbook';letter-spacing:0px;word-spacing:0px;writing-mode:lr-tb;display:inline;stroke-width:0.265;stroke-dasharray:none"
       x="135.14391"
       y="52.360195"
       id="text328-0-2-1-0"><tspan
         sodipodi:role="line"
         style="font-style:normal;font-variant:normal;font-weight:normal;font-stretch:normal;font-size:12px;font-family:Broadway;-inkscape-font-specification:Broadway;text-align:center;text-anchor:middle;stroke-width:0.265;stroke-dasharray:none"
         x="135.14391"
         y="52.360195"
         id="tspan333-7-3">Rosie</tspan></text><text
       xml:space="preserve"
       style="font-style:normal;font-variant:normal;font-weight:normal;font-stretch:normal;font-size:7.99999px;line-height:1.25;font-family:'Century Schoolbook';-inkscape-font-specification:'Century Schoolbook';letter-spacing:0px;word-spacing:0px;writing-mode:lr-tb;display:inline;stroke-width:0.265;stroke-dasharray:none"
       x="-57.43956"
       y="-14.192631"
       id="text328-0-2-1-0-4"
       transform="scale(-1)"><tspan
         sodipodi:role="line"
         style="font-style:normal;font-variant:normal;font-weight:normal;font-stretch:normal;font-size:12px;font-family:Broadway;-inkscape-font-specification:Broadway;text-align:center;text-anchor:middle;stroke-width:0.265;stroke-dasharray:none"
         x="-57.43956"
         y="-14.192631"
         id="tspan333-7-3-8">&gt;&gt;&gt;&gt;&gt;</tspan></text></g><g
     inkscape:groupmode="layer"
     id="g58"
     inkscape:label="TextRegular copy"
     style="display:inline"><g
       id="text54"
       style="font-size:6px;line-height:1.25;font-family:'Century Schoolbook';-inkscape-font-specification:'Century Schoolbook';letter-spacing:0px;word-spacing:0px;stroke-width:0.265"
       aria-label="DolphinDAQ&#10;2024 Feister"><path
         style="font-family:Cairo;-inkscape-font-specification:Cairo;text-align:center;text-anchor:middle"
         d="m 44.403177,41.178116 q 0.63,0 0.966,0.276 0.342,0.276 0.456,0.702 0.114,0.426 0.114,0.996 0,1.14 -0.378,1.662 -0.372,0.516 -1.158,0.516 h -1.482 v -4.152 z m 0,3.744 q 1.062,0 1.062,-1.728 0,-0.84 -0.258,-1.224 -0.258,-0.384 -0.804,-0.384 h -1.02 v 3.336 z m 3.462002,0.468 q -0.48,0 -0.762,-0.156 -0.282,-0.162 -0.402,-0.498 -0.12,-0.336 -0.12,-0.888 0,-0.57 0.126,-0.912 0.126,-0.348 0.408,-0.504 0.282,-0.162 0.75,-0.162 0.474,0 0.75,0.162 0.282,0.162 0.408,0.504 0.126,0.342 0.126,0.912 0,0.552 -0.12,0.888 -0.12,0.336 -0.402,0.498 -0.276,0.156 -0.762,0.156 z m 0.006,-0.39 q 0.33,0 0.504,-0.108 0.174,-0.114 0.24,-0.354 0.072,-0.246 0.072,-0.69 0,-0.468 -0.072,-0.72 -0.072,-0.252 -0.246,-0.36 -0.174,-0.108 -0.498,-0.108 -0.324,0 -0.504,0.108 -0.174,0.108 -0.252,0.36 -0.072,0.252 -0.072,0.72 0,0.438 0.066,0.684 0.072,0.246 0.246,0.36 0.18,0.108 0.516,0.108 z m 2.046,-3.978 h 0.45 v 4.308 h -0.45 z m 1.350005,1.308 h 0.444 v 0.216 q 0.234,-0.138 0.45,-0.204 0.222,-0.072 0.468,-0.072 0.558,0 0.81,0.372 0.258,0.366 0.258,1.17 0,0.57 -0.132,0.918 -0.132,0.342 -0.42,0.504 -0.288,0.156 -0.774,0.156 -0.336,0 -0.654,-0.066 v 1.338 h -0.45 z m 1.11,2.67 q 0.468,0 0.666,-0.276 0.198,-0.276 0.198,-0.894 0,-0.612 -0.174,-0.882 -0.168,-0.276 -0.516,-0.276 -0.174,0 -0.378,0.06 -0.198,0.054 -0.342,0.12 l -0.114,0.06 v 2.022 q 0.444,0.066 0.66,0.066 z m 2.052003,-3.978 h 0.45 v 1.476 q 0.264,-0.12 0.486,-0.174 0.228,-0.054 0.462,-0.054 0.39,0 0.6,0.144 0.216,0.138 0.3,0.456 0.09,0.318 0.09,0.876 v 1.584 h -0.45 v -1.572 q 0,-0.444 -0.054,-0.666 -0.048,-0.228 -0.192,-0.324 -0.138,-0.096 -0.414,-0.096 -0.342,0 -0.714,0.138 l -0.114,0.042 v 2.478 h -0.45 z m 3.222004,4.308 z m 0,-3 h 0.444 v 3 h -0.444 z m 0,-1.2 h 0.444 v 0.522 h -0.444 z m 1.308002,1.2 h 0.444 v 0.21 q 0.27,-0.15 0.492,-0.21 0.228,-0.06 0.474,-0.06 0.384,0 0.594,0.144 0.21,0.144 0.294,0.462 0.09,0.312 0.09,0.87 v 1.584 h -0.444 v -1.572 q 0,-0.426 -0.054,-0.654 -0.048,-0.228 -0.18,-0.33 -0.132,-0.102 -0.384,-0.102 -0.204,0 -0.42,0.054 -0.21,0.048 -0.342,0.114 l -0.114,0.054 v 2.436 h -0.45 z m 4.782004,-1.152 q 0.63,0 0.966,0.276 0.342,0.276 0.456,0.702 0.114,0.426 0.114,0.996 0,1.14 -0.378,1.662 -0.372,0.516 -1.158,0.516 h -1.482 v -4.152 z m 0,3.744 q 1.062,0 1.062,-1.728 0,-0.84 -0.258,-1.224 -0.258,-0.384 -0.804,-0.384 h -1.02 v 3.336 z m 4.470003,-0.66 h -1.776 l -0.3,1.068 h -0.456 l 1.14,-4.152 h 1.008 l 1.14,4.152 h -0.456 z m -1.674,-0.414 h 1.572 l -0.63,-2.274 h -0.312 z m 4.986009,1.488 q -0.198,0.054 -0.504,0.054 -0.618,0 -0.978,-0.222 -0.354,-0.222 -0.51,-0.678 -0.15,-0.462 -0.15,-1.218 0,-0.75 0.156,-1.218 0.156,-0.474 0.516,-0.702 0.36,-0.234 0.966,-0.234 0.606,0 0.966,0.234 0.36,0.228 0.516,0.702 0.162,0.468 0.162,1.218 0,0.774 -0.162,1.23 -0.156,0.456 -0.528,0.672 l 0.51,0.822 -0.432,0.204 z m -0.498,-0.354 q 0.456,0 0.702,-0.168 0.252,-0.168 0.354,-0.528 0.102,-0.366 0.102,-1.002 0,-0.636 -0.108,-1.014 -0.102,-0.378 -0.354,-0.558 -0.252,-0.186 -0.702,-0.186 -0.45,0 -0.702,0.18 -0.252,0.18 -0.36,0.558 -0.102,0.378 -0.102,1.008 0,0.63 0.102,1.002 0.102,0.366 0.354,0.54 0.258,0.168 0.714,0.168 z"
         id="path58" /><path
         style="font-family:Cairo;-inkscape-font-specification:Cairo;text-align:center;text-anchor:middle"
         d="m 42.045199,53.018161 1.158,-1.218 q 0.276,-0.288 0.426,-0.462 0.156,-0.18 0.264,-0.396 0.108,-0.216 0.108,-0.444 0,-0.378 -0.204,-0.534 -0.204,-0.162 -0.66,-0.162 -0.378,0 -0.87,0.102 l -0.156,0.03 -0.036,-0.384 q 0.564,-0.162 1.176,-0.162 0.618,0 0.918,0.258 0.306,0.258 0.306,0.804 0,0.408 -0.18,0.72 -0.18,0.312 -0.648,0.762 l -1.056,1.074 h 1.986 v 0.402 h -2.532 z m 4.625997,0.45 q -0.492,0 -0.81,-0.198 -0.318,-0.198 -0.48,-0.648 -0.156,-0.45 -0.156,-1.194 0,-0.744 0.156,-1.194 0.162,-0.45 0.48,-0.648 0.318,-0.204 0.81,-0.204 0.732,0 1.086,0.474 0.354,0.474 0.354,1.572 0,0.744 -0.162,1.194 -0.156,0.45 -0.474,0.648 -0.318,0.198 -0.804,0.198 z m 0,-0.408 q 0.342,0 0.552,-0.15 0.21,-0.156 0.312,-0.51 0.102,-0.36 0.102,-0.972 0,-0.612 -0.102,-0.966 -0.102,-0.36 -0.312,-0.51 -0.21,-0.156 -0.552,-0.156 -0.342,0 -0.552,0.156 -0.21,0.15 -0.312,0.51 -0.102,0.354 -0.102,0.966 0,0.612 0.102,0.972 0.102,0.354 0.312,0.51 0.21,0.15 0.552,0.15 z m 2.093996,-0.042 1.158,-1.218 q 0.276,-0.288 0.426,-0.462 0.156,-0.18 0.264,-0.396 0.108,-0.216 0.108,-0.444 0,-0.378 -0.204,-0.534 -0.204,-0.162 -0.66,-0.162 -0.378,0 -0.87,0.102 l -0.156,0.03 -0.036,-0.384 q 0.564,-0.162 1.176,-0.162 0.618,0 0.918,0.258 0.306,0.258 0.306,0.804 0,0.408 -0.18,0.72 -0.18,0.312 -0.648,0.762 l -1.056,1.074 h 1.986 v 0.402 h -2.532 z m 5.105997,-0.384 h -1.92 v -0.36 l 1.128,-2.826 h 0.504 l -1.146,2.778 h 1.434 v -1.236 h 0.462 v 1.236 h 0.504 v 0.408 h -0.504 v 0.774 h -0.462 z m 3.491993,-2.97 v 1.62 h 1.71 v 0.408 h -1.71 v 1.716 h -0.462 v -4.152 h 2.484 v 0.408 z m 3.630008,3.804 q -0.684,0 -0.972,-0.354 -0.282,-0.36 -0.282,-1.128 0,-0.834 0.306,-1.236 0.306,-0.402 0.96,-0.402 0.6,0 0.894,0.348 0.3,0.342 0.3,1.056 l -0.024,0.342 h -1.98 q 0,0.372 0.078,0.582 0.084,0.21 0.276,0.306 0.198,0.09 0.546,0.09 0.174,0 0.402,-0.006 0.228,-0.012 0.414,-0.03 l 0.174,-0.018 0.012,0.354 q -0.666,0.096 -1.104,0.096 z m 0.756,-1.734 q 0,-0.546 -0.174,-0.774 -0.174,-0.234 -0.57,-0.234 -0.414,0 -0.612,0.246 -0.198,0.24 -0.204,0.762 z m 1.151995,1.674 z m 0,-3 h 0.444 v 3 h -0.444 z m 0,-1.2 h 0.444 v 0.522 h -0.444 z m 2.250002,4.26 q -0.36,0 -0.882,-0.084 l -0.18,-0.03 0.024,-0.39 q 0.702,0.102 1.032,0.102 0.36,0 0.534,-0.114 0.18,-0.12 0.18,-0.378 0,-0.186 -0.09,-0.282 -0.084,-0.096 -0.222,-0.138 -0.132,-0.042 -0.378,-0.078 l -0.15,-0.024 q -0.36,-0.06 -0.564,-0.144 -0.204,-0.084 -0.306,-0.234 -0.102,-0.156 -0.102,-0.426 0,-0.486 0.294,-0.69 0.294,-0.204 0.834,-0.204 0.426,0 0.87,0.078 l 0.168,0.03 -0.012,0.384 q -0.648,-0.096 -1.014,-0.096 -0.348,0 -0.522,0.108 -0.168,0.108 -0.168,0.336 0,0.162 0.084,0.252 0.084,0.084 0.216,0.126 0.138,0.036 0.384,0.078 l 0.15,0.03 q 0.372,0.066 0.576,0.156 0.204,0.084 0.3,0.246 0.102,0.162 0.102,0.45 0,0.486 -0.288,0.714 -0.282,0.222 -0.87,0.222 z m 2.802001,0.006 q -0.306,0 -0.48,-0.096 -0.168,-0.102 -0.246,-0.336 -0.072,-0.24 -0.072,-0.666 v -1.578 h -0.426 v -0.39 h 0.426 v -0.918 h 0.444 v 0.918 h 0.954 v 0.39 h -0.954 v 1.434 q 0,0.336 0.024,0.504 0.024,0.162 0.114,0.252 0.096,0.084 0.294,0.084 l 0.534,-0.036 0.03,0.372 q -0.426,0.066 -0.642,0.066 z m 2.273999,-0.006 q -0.684,0 -0.972,-0.354 -0.282,-0.36 -0.282,-1.128 0,-0.834 0.306,-1.236 0.306,-0.402 0.96,-0.402 0.6,0 0.894,0.348 0.3,0.342 0.3,1.056 l -0.024,0.342 h -1.98 q 0,0.372 0.078,0.582 0.084,0.21 0.276,0.306 0.198,0.09 0.546,0.09 0.174,0 0.402,-0.006 0.228,-0.012 0.414,-0.03 l 0.174,-0.018 0.012,0.354 q -0.666,0.096 -1.104,0.096 z m 0.756,-1.734 q 0,-0.546 -0.174,-0.774 -0.174,-0.234 -0.57,-0.234 -0.414,0 -0.612,0.246 -0.198,0.24 -0.204,0.762 z m 1.151995,-1.326 h 0.444 v 0.408 q 0.516,-0.354 1.098,-0.474 v 0.456 q -0.234,0.048 -0.51,0.15 -0.27,0.096 -0.432,0.18 l -0.15,0.078 v 2.202 h -0.45 z"
         id="path59" /></g><path
       style="font-size:6px;line-height:1.25;font-family:Cairo;-inkscape-font-specification:Cairo;text-align:center;letter-spacing:0px;word-spacing:0px;text-anchor:middle;stroke-width:0.265"
       d="m -50.225849,27.871422 q -0.618,0 -0.978,-0.222 -0.36,-0.222 -0.516,-0.678 -0.15,-0.462 -0.15,-1.218 0,-0.75 0.156,-1.218 0.156,-0.474 0.516,-0.702 0.36,-0.234 0.966,-0.234 0.606,0 0.966,0.234 0.36,0.228 0.516,0.702 0.162,0.468 0.162,1.23 0,0.762 -0.156,1.218 -0.15,0.456 -0.51,0.672 -0.354,0.216 -0.972,0.216 z m 0,-0.408 q 0.456,0 0.702,-0.168 0.252,-0.168 0.354,-0.528 0.102,-0.366 0.102,-1.002 0,-0.636 -0.108,-1.014 -0.102,-0.378 -0.354,-0.558 -0.252,-0.186 -0.702,-0.186 -0.45,0 -0.702,0.18 -0.252,0.18 -0.36,0.558 -0.102,0.378 -0.102,1.008 0,0.63 0.102,1.002 0.102,0.366 0.354,0.54 0.258,0.168 0.714,0.168 z m 3.341999,0.408 q -0.384,0 -0.594,-0.138 -0.204,-0.144 -0.288,-0.462 -0.084,-0.318 -0.084,-0.894 v -1.566 h 0.45 v 1.56 q 0,0.45 0.048,0.678 0.048,0.228 0.174,0.324 0.126,0.096 0.39,0.096 0.408,0 0.84,-0.222 v -2.436 h 0.45 v 3 h -0.45 v -0.21 q -0.246,0.144 -0.456,0.21 -0.21,0.06 -0.48,0.06 z m 3.204001,0.006 q -0.306,0 -0.48,-0.096 -0.168,-0.102 -0.246,-0.336 -0.072,-0.24 -0.072,-0.666 v -1.578 h -0.426 v -0.39 h 0.426 v -0.918 h 0.444 v 0.918 h 0.954 v 0.39 h -0.954 v 1.434 q 0,0.336 0.024,0.504 0.024,0.162 0.114,0.252 0.096,0.084 0.294,0.084 l 0.534,-0.036 0.03,0.372 q -0.426,0.066 -0.642,0.066 z"
       id="text55"
       transform="rotate(-90)"
       aria-label="Out" /><path
       style="font-size:12px;line-height:1.25;font-family:Broadway;-inkscape-font-specification:Broadway;text-align:center;letter-spacing:0px;word-spacing:0px;text-anchor:middle;stroke-width:0.265"
       d="m 47.755959,74.993469 v 0.978516 l -2.484375,1.517578 2.484375,1.722656 v 2.601563 l -5.126954,-3.556641 v -0.123047 z m 6,0 v 0.978516 l -2.484375,1.517578 2.484375,1.722656 v 2.601563 l -5.126954,-3.556641 v -0.123047 z m 6,0 v 0.978516 l -2.484375,1.517578 2.484375,1.722656 v 2.601563 l -5.126954,-3.556641 v -0.123047 z m 6,0 v 0.978516 l -2.484375,1.517578 2.484375,1.722656 v 2.601563 l -5.126954,-3.556641 v -0.123047 z m 6,0 v 0.978516 l -2.484375,1.517578 2.484375,1.722656 v 2.601563 l -5.126954,-3.556641 v -0.123047 z"
       id="text56"
       aria-label="&lt;&lt;&lt;&lt;&lt;" /><path
       style="font-size:12px;line-height:1.25;font-family:Broadway;-inkscape-font-specification:Broadway;text-align:center;letter-spacing:0px;word-spacing:0px;text-anchor:middle;stroke-width:0.265"
       d="m 123.89684,51.035976 q 0.5625,0.386719 1.21289,0.66211 0.65625,0.269531 1.40625,0.421875 0.18164,0.03516 0.18164,0.175781 0,0.193359 -0.26953,0.193359 -0.61524,0 -1.72852,-0.539062 -0.92578,-0.451172 -2.12109,-1.394531 v 0.240234 l 0.006,0.996094 v 0.568359 h -3.56836 v -0.263672 l 0.0117,-1.910156 0.0176,-2.285156 -0.0117,-3.539063 h 2.35547 q 1.58203,0 2.39063,0.08789 0.80859,0.08789 1.37695,0.328125 0.92578,0.386719 1.46484,1.271484 0.49805,0.820313 0.49805,1.722657 0,0.960937 -0.55664,1.810546 -0.89648,1.365235 -2.66601,1.453125 z m -0.55665,-0.363281 0.28125,0.0059 q 1.20704,0 2.03907,-0.673829 0.52734,-0.421875 0.80859,-1.054687 0.26367,-0.580078 0.26367,-1.183594 0,-1.02539 -0.66797,-1.833984 -0.50976,-0.626953 -1.27734,-0.884766 -0.76758,-0.257812 -2.16211,-0.27539 l -0.0527,3.925781 v 1.060547 l 0.006,0.27539 q 0.35742,0.345703 0.76171,0.638672 z m 7.66993,-4.86914 q 0.94336,0 1.78711,0.521484 0.77929,0.480469 1.18945,1.3125 0.36328,0.732422 0.36328,1.552734 0,0.5625 -0.2168,1.13086 -0.21093,0.568359 -0.58007,1.007812 -0.51563,0.603516 -1.25977,0.908203 -0.60938,0.251953 -1.27148,0.251953 -1.10743,0 -1.99219,-0.65625 -0.69141,-0.503906 -1.04883,-1.294921 -0.29883,-0.667969 -0.29883,-1.41211 0,-1.453125 1.05469,-2.414062 0.99023,-0.890625 2.27344,-0.908203 z m -0.16993,0.380859 -0.0176,5.90625 q 0.18164,0.01172 0.25195,0.01172 0.81445,0 1.55859,-0.457032 0.71485,-0.445312 1.07227,-1.183593 0.28125,-0.585938 0.28125,-1.289063 0,-1.412109 -1.04297,-2.291015 -0.84375,-0.708985 -1.83398,-0.708985 -0.082,0 -0.26954,0.01172 z m 4.32422,5.091797 q 0.11719,0 0.29883,0.175781 0.29297,0.275391 0.83203,0.474609 0.53907,0.19336 1.00782,0.19336 0.21679,0 0.32226,-0.07031 0.11133,-0.07617 0.11133,-0.216797 0,-0.140625 -0.15234,-0.333984 -0.14649,-0.199219 -0.66211,-0.755859 -1.25977,-1.347657 -1.63477,-1.892578 -0.36914,-0.550782 -0.36914,-1.054688 0,-0.439453 0.25195,-0.837891 0.25782,-0.404296 0.71485,-0.685546 0.75586,-0.46875 1.73437,-0.46875 0.7207,0 1.52344,0.304687 0.62695,0.240234 0.62695,0.521484 0,0.08789 -0.0762,0.158204 -0.0703,0.07031 -0.16406,0.07031 -0.11133,0 -0.41602,-0.216797 -0.62109,-0.445312 -1.35351,-0.445312 -0.25782,0 -0.39258,0.08203 -0.12891,0.08203 -0.12891,0.251953 0,0.199219 0.24024,0.503906 0.24609,0.304688 0.99023,1.03125 0.72656,0.708985 0.91992,0.931641 0.19922,0.216797 0.38086,0.503906 0.31055,0.492188 0.31055,1.066406 0,0.902344 -0.87305,1.458985 -0.71484,0.46289 -1.75781,0.46289 -1.16016,0 -2.05664,-0.515625 -0.26367,-0.158203 -0.36328,-0.257812 -0.0937,-0.09961 -0.0937,-0.216797 0,-0.216797 0.22851,-0.222656 z m 7.37696,-7.365235 q 1.54687,0 1.54687,0.808594 0,0.392578 -0.41015,0.615235 -0.4043,0.216796 -1.14258,0.216796 -1.47071,0 -1.47071,-0.832031 0,-0.796875 1.47657,-0.808594 z m 1.51757,2.050782 v 0.169922 l -0.0117,0.914062 -0.0117,1.417969 -0.0176,2.15625 0.0234,1.21289 0.0117,0.527344 h -3.01172 l 0.0293,-2.15625 0.0176,-1.904297 -0.0117,-1.001953 -0.0176,-1.113281 0.006,-0.222656 z m 3.72657,3.386718 v 1.816407 q 0,0.527343 0.0645,0.667968 0.12305,0.269532 0.58008,0.269532 0.67969,0 1.3418,-0.369141 0.66796,-0.375 1.15429,-1.03125 0.15821,-0.216797 0.22852,-0.275391 0.0703,-0.05859 0.15234,-0.05859 0.0996,0 0.16406,0.07617 0.0645,0.07031 0.0645,0.18164 0,0.246094 -0.39258,0.66211 -0.51563,0.533203 -1.2832,0.867187 -0.76172,0.333984 -1.48829,0.333984 -1.24804,0 -2.20312,-0.83789 -0.55664,-0.492188 -0.85547,-1.212891 -0.26367,-0.632812 -0.26367,-1.265625 0,-0.609375 0.23437,-1.21875 0.23438,-0.615234 0.64454,-1.060547 0.4746,-0.521484 1.125,-0.808593 0.63867,-0.28125 1.33593,-0.28125 1.08399,0 1.96289,0.638671 1.3711,0.996094 1.35938,2.888672 h -1.36524 l -1.75781,0.0059 z m 1.5,-0.386718 V 47.25082 q -0.0117,-0.550781 -0.0234,-0.65625 -0.0117,-0.111328 -0.082,-0.205078 -0.16406,-0.228516 -0.66797,-0.228516 -0.51563,0 -0.64453,0.263672 -0.082,0.158203 -0.082,0.826172 v 1.710938 l 0.71484,0.02344 z"
       id="text57"
       aria-label="Rosie" /><path
       style="font-size:12px;line-height:1.25;font-family:Broadway;-inkscape-font-specification:Broadway;text-align:center;letter-spacing:0px;word-spacing:0px;text-anchor:middle;stroke-width:0.265"
       d="m -72.000107,-15.159428 v -0.978515 l 2.484375,-1.517578 -2.484375,-1.722657 v -2.601562 l 5.126953,3.55664 v 0.123047 z m 6,0 v -0.978515 l 2.484375,-1.517578 -2.484375,-1.722657 v -2.601562 l 5.126953,3.55664 v 0.123047 z m 6,0 v -0.978515 l 2.484375,-1.517578 -2.484375,-1.722657 v -2.601562 l 5.126953,3.55664 v 0.123047 z m 6,0 v -0.978515 l 2.484375,-1.517578 -2.484375,-1.722657 v -2.601562 l 5.126953,3.55664 v 0.123047 z m 6,0 v -0.978515 l 2.484375,-1.517578 -2.484375,-1.722657 v -2.601562 l 5.126953,3.55664 v 0.123047 z"
       id="text58"
       transform="scale(-1)"
       aria-label="&gt;&gt;&gt;&gt;&gt;" /></g><g
     id="panel1365"><path
       style="fill:none;stroke:#000000;stroke-width:1"
       d="M 35.2 64.4 L 41.4 64.4 L 41.4 63.2 L 41.2 63 L 41.2 62.8 L 41.4 62.6 L 41.4 61.4 L 47.6 61.4 L 47.6 62.6 L 47.8 62.8 L 47.8 63 L 47.6 63.2 L 47.6 64.4 L 53.7 64.4 L 53.7 63.2 L 53.5 63 L 53.5 62.8 L 53.7 62.6 L 53.7 61.4 L 59.9 61.4 L 59.9 62.6 L 60.1 62.8 L 60.1 63 L 59.9 63.2 L 59.9 64.4 L 66 64.4 L 66 63.2 L 65.8 63 L 65.8 62.8 L 66 62.6 L 66 61.4 L 72.2 61.4 L 72.2 62.6 L 72.4 62.8 L 72.4 63 L 72.2 63.2 L 72.2 64.4 L 78.4 64.4"
       id="path24" /><path
       style="fill:none;stroke:#000000;stroke-width:1"
       d="M 78.4 64.4 L 78.4 67.9 L 77.2 67.9 L 77 68.1 L 76.8 68.1 L 76.6 67.9 L 75.4 67.9 L 75.4 73.7 L 76.6 73.7 L 76.8 73.5 L 77 73.5 L 77.2 73.7 L 78.4 73.7 L 78.4 80.3 L 77.2 80.3 L 77 80.5 L 76.8 80.5 L 76.6 80.3 L 75.4 80.3 L 75.4 86.1 L 76.6 86.1 L 76.8 85.9 L 77 85.9 L 77.2 86.1 L 78.4 86.1 L 78.4 89.6"
       id="path25" /><path
       style="fill:none;stroke:#000000;stroke-width:1"
       d="M 78.4 89.6 L 72.2 89.6 L 72.2 90.8 L 72.4 91 L 72.4 91.2 L 72.2 91.4 L 72.2 92.6 L 66 92.6 L 66 91.4 L 65.8 91.2 L 65.8 91 L 66 90.8 L 66 89.6 L 59.9 89.6 L 59.9 90.8 L 60.1 91 L 60.1 91.2 L 59.9 91.4 L 59.9 92.6 L 53.7 92.6 L 53.7 91.4 L 53.5 91.2 L 53.5 91 L 53.7 90.8 L 53.7 89.6 L 47.6 89.6 L 47.6 90.8 L 47.8 91 L 47.8 91.2 L 47.6 91.4 L 47.6 92.6 L 41.4 92.6 L 41.4 91.4 L 41.2 91.2 L 41.2 91 L 41.4 90.8 L 41.4 89.6 L 35.2 89.6"
       id="path26" /><path
       style="fill:none;stroke:#000000;stroke-width:1"
       d="M 35.2 89.6 L 35.2 86.1 L 36.4 86.1 L 36.6 85.9 L 36.8 85.9 L 37 86.1 L 38.2 86.1 L 38.2 80.3 L 37 80.3 L 36.8 80.5 L 36.6 80.5 L 36.4 80.3 L 35.2 80.3 L 35.2 73.7 L 36.4 73.7 L 36.6 73.5 L 36.8 73.5 L 37 73.7 L 38.2 73.7 L 38.2 67.9 L 37 67.9 L 36.8 68.1 L 36.6 68.1 L 36.4 67.9 L 35.2 67.9 L 35.2 64.4"
       id="path27" /></g><g
     id="panel6081"><path
       style="fill:none;stroke:#000000;stroke-width:1"
       d="M 5 38.2 L 8.3 38.2 L 8.3 37 L 8.1 36.8 L 8.1 36.6 L 8.3 36.4 L 8.3 35.2 L 14.5 35.2 L 14.5 36.4 L 14.7 36.6 L 14.7 36.8 L 14.5 37 L 14.5 38.2 L 20.7 38.2 L 20.7 37 L 20.5 36.8 L 20.5 36.6 L 20.7 36.4 L 20.7 35.2 L 26.9 35.2 L 26.9 36.4 L 27.1 36.6 L 27.1 36.8 L 26.9 37 L 26.9 38.2 L 30.2 38.2"
       id="path28" /><path
       style="fill:none;stroke:#000000;stroke-width:1"
       d="M 30.2 38.2 L 30.2 44.2 L 31.4 44.2 L 31.6 44 L 31.8 44 L 32 44.2 L 33.2 44.2 L 33.2 50.4 L 32 50.4 L 31.8 50.6 L 31.6 50.6 L 31.4 50.4 L 30.2 50.4 L 30.2 56.4"
       id="path29" /><path
       style="fill:none;stroke:#000000;stroke-width:1"
       d="M 30.2 56.4 L 26.9 56.4 L 26.9 57.6 L 27.1 57.8 L 27.1 58 L 26.9 58.2 L 26.9 59.4 L 20.7 59.4 L 20.7 58.2 L 20.5 58 L 20.5 57.8 L 20.7 57.6 L 20.7 56.4 L 14.5 56.4 L 14.5 57.6 L 14.7 57.8 L 14.7 58 L 14.5 58.2 L 14.5 59.4 L 8.3 59.4 L 8.3 58.2 L 8.1 58 L 8.1 57.8 L 8.3 57.6 L 8.3 56.4 L 5 56.4"
       id="path30" /><path
       style="fill:none;stroke:#000000;stroke-width:1"
       d="M 5 56.4 L 5 50.4 L 3.8 50.4 L 3.6 50.6 L 3.4 50.6 L 3.2 50.4 L 2 50.4 L 2 44.2 L 3.2 44.2 L 3.4 44 L 3.6 44 L 3.8 44.2 L 5 44.2 L 5 38.2"
       id="path31" /></g><g
     id="panel6696"><path
       style="fill:none;stroke:#000000;stroke-width:1"
       d="M 35.2 35.2 L 41.6 35.2 L 41.6 36.4 L 41.8 36.6 L 41.8 36.8 L 41.6 37 L 41.6 38.2 L 47.4 38.2 L 47.4 37 L 47.2 36.8 L 47.2 36.6 L 47.4 36.4 L 47.4 35.2 L 53.9 35.2 L 53.9 36.4 L 54.1 36.6 L 54.1 36.8 L 53.9 37 L 53.9 38.2 L 59.7 38.2 L 59.7 37 L 59.5 36.8 L 59.5 36.6 L 59.7 36.4 L 59.7 35.2 L 66.2 35.2 L 66.2 36.4 L 66.4 36.6 L 66.4 36.8 L 66.2 37 L 66.2 38.2 L 72 38.2 L 72 37 L 71.8 36.8 L 71.8 36.6 L 72 36.4 L 72 35.2 L 78.4 35.2"
       id="path32" /><path
       style="fill:none;stroke:#000000;stroke-width:1"
       d="M 78.4 35.2 L 78.4 44.4 L 77.2 44.4 L 77 44.6 L 76.8 44.6 L 76.6 44.4 L 75.4 44.4 L 75.4 50.2 L 76.6 50.2 L 76.8 50 L 77 50 L 77.2 50.2 L 78.4 50.2 L 78.4 59.4"
       id="path33" /><path
       style="fill:none;stroke:#000000;stroke-width:1"
       d="M 78.4 59.4 L 72 59.4 L 72 58.2 L 71.8 58 L 71.8 57.8 L 72 57.6 L 72 56.4 L 66.2 56.4 L 66.2 57.6 L 66.4 57.8 L 66.4 58 L 66.2 58.2 L 66.2 59.4 L 59.7 59.4 L 59.7 58.2 L 59.5 58 L 59.5 57.8 L 59.7 57.6 L 59.7 56.4 L 53.9 56.4 L 53.9 57.6 L 54.1 57.8 L 54.1 58 L 53.9 58.2 L 53.9 59.4 L 47.4 59.4 L 47.4 58.2 L 47.2 58 L 47.2 57.8 L 47.4 57.6 L 47.4 56.4 L 41.6 56.4 L 41.6 57.6 L 41.8 57.8 L 41.8 58 L 41.6 58.2 L 41.6 59.4 L 35.2 59.4"
       id="path34" /><path
       style="fill:none;stroke:#000000;stroke-width:1"
       d="M 35.2 59.4 L 35.2 50.2 L 36.4 50.2 L 36.6 50 L 36.8 50 L 37 50.2 L 38.2 50.2 L 38.2 44.4 L 37 44.4 L 36.8 44.6 L 36.6 44.6 L 36.4 44.4 L 35.2 44.4 L 35.2 35.2"
       id="path40" /></g><g
     id="panel5925"><path
       style="fill:none;stroke:#000000;stroke-width:1"
       d="M 83.4 38.2 L 86.7 38.2 L 86.7 37 L 86.5 36.8 L 86.5 36.6 L 86.7 36.4 L 86.7 35.2 L 92.9 35.2 L 92.9 36.4 L 93.1 36.6 L 93.1 36.8 L 92.9 37 L 92.9 38.2 L 99.1 38.2 L 99.1 37 L 98.9 36.8 L 98.9 36.6 L 99.1 36.4 L 99.1 35.2 L 105.3 35.2 L 105.3 36.4 L 105.5 36.6 L 105.5 36.8 L 105.3 37 L 105.3 38.2 L 108.6 38.2"
       id="path41" /><path
       style="fill:none;stroke:#000000;stroke-width:1"
       d="M 108.6 38.2 L 108.6 44.2 L 109.8 44.2 L 110 44 L 110.2 44 L 110.4 44.2 L 111.6 44.2 L 111.6 50.4 L 110.4 50.4 L 110.2 50.6 L 110 50.6 L 109.8 50.4 L 108.6 50.4 L 108.6 56.4"
       id="path42" /><path
       style="fill:none;stroke:#000000;stroke-width:1"
       d="M 108.6 56.4 L 105.3 56.4 L 105.3 57.6 L 105.5 57.8 L 105.5 58 L 105.3 58.2 L 105.3 59.4 L 99.1 59.4 L 99.1 58.2 L 98.9 58 L 98.9 57.8 L 99.1 57.6 L 99.1 56.4 L 92.9 56.4 L 92.9 57.6 L 93.1 57.8 L 93.1 58 L 92.9 58.2 L 92.9 59.4 L 86.7 59.4 L 86.7 58.2 L 86.5 58 L 86.5 57.8 L 86.7 57.6 L 86.7 56.4 L 83.4 56.4"
       id="path43" /><path
       style="fill:none;stroke:#000000;stroke-width:1"
       d="M 83.4 56.4 L 83.4 50.4 L 82.2 50.4 L 82 50.6 L 81.8 50.6 L 81.6 50.4 L 80.4 50.4 L 80.4 44.2 L 81.6 44.2 L 81.8 44 L 82 44 L 82.2 44.2 L 83.4 44.2 L 83.4 38.2"
       id="path44" /></g><g
     id="panel2045"><path
       style="fill:none;stroke:#000000;stroke-width:1"
       d="M 113.6 35.2 L 120 35.2 L 120 36.4 L 120.2 36.6 L 120.2 36.8 L 120 37 L 120 38.2 L 125.8 38.2 L 125.8 37 L 125.6 36.8 L 125.6 36.6 L 125.8 36.4 L 125.8 35.2 L 132.3 35.2 L 132.3 36.4 L 132.5 36.6 L 132.5 36.8 L 132.3 37 L 132.3 38.2 L 138.1 38.2 L 138.1 37 L 137.9 36.8 L 137.9 36.6 L 138.1 36.4 L 138.1 35.2 L 144.6 35.2 L 144.6 36.4 L 144.8 36.6 L 144.8 36.8 L 144.6 37 L 144.6 38.2 L 150.4 38.2 L 150.4 37 L 150.2 36.8 L 150.2 36.6 L 150.4 36.4 L 150.4 35.2 L 156.8 35.2"
       id="path45" /><path
       style="fill:none;stroke:#000000;stroke-width:1"
       d="M 156.8 35.2 L 156.8 44.4 L 155.6 44.4 L 155.4 44.6 L 155.2 44.6 L 155 44.4 L 153.8 44.4 L 153.8 50.2 L 155 50.2 L 155.2 50 L 155.4 50 L 155.6 50.2 L 156.8 50.2 L 156.8 59.4"
       id="path46" /><path
       style="fill:none;stroke:#000000;stroke-width:1"
       d="M 156.8 59.4 L 150.4 59.4 L 150.4 58.2 L 150.2 58 L 150.2 57.8 L 150.4 57.6 L 150.4 56.4 L 144.6 56.4 L 144.6 57.6 L 144.8 57.8 L 144.8 58 L 144.6 58.2 L 144.6 59.4 L 138.1 59.4 L 138.1 58.2 L 137.9 58 L 137.9 57.8 L 138.1 57.6 L 138.1 56.4 L 132.3 56.4 L 132.3 57.6 L 132.5 57.8 L 132.5 58 L 132.3 58.2 L 132.3 59.4 L 125.8 59.4 L 125.8 58.2 L 125.6 58 L 125.6 57.8 L 125.8 57.6 L 125.8 56.4 L 120 56.4 L 120 57.6 L 120.2 57.8 L 120.2 58 L 120 58.2 L 120 59.4 L 113.6 59.4"
       id="path47" /><path
       style="fill:none;stroke:#000000;stroke-width:1"
       d="M 113.6 59.4 L 113.6 50.2 L 114.8 50.2 L 115 50 L 115.2 50 L 115.4 50.2 L 116.6 50.2 L 116.6 44.4 L 115.4 44.4 L 115.2 44.6 L 115 44.6 L 114.8 44.4 L 113.6 44.4 L 113.6 35.2"
       id="path48" /></g><g
     id="panel2022"><path
       style="fill:none;stroke:#000000;stroke-width:1"
       d="M 35.2 5 L 41.4 5 L 41.4 3.8 L 41.2 3.6 L 41.2 3.4 L 41.4 3.2 L 41.4 2 L 47.6 2 L 47.6 3.2 L 47.8 3.4 L 47.8 3.6 L 47.6 3.8 L 47.6 5 L 53.7 5 L 53.7 3.8 L 53.5 3.6 L 53.5 3.4 L 53.7 3.2 L 53.7 2 L 59.9 2 L 59.9 3.2 L 60.1 3.4 L 60.1 3.6 L 59.9 3.8 L 59.9 5 L 66 5 L 66 3.8 L 65.8 3.6 L 65.8 3.4 L 66 3.2 L 66 2 L 72.2 2 L 72.2 3.2 L 72.4 3.4 L 72.4 3.6 L 72.2 3.8 L 72.2 5 L 78.4 5"
       id="path49" /><path
       style="fill:none;stroke:#000000;stroke-width:1"
       d="M 78.4 5 L 78.4 8.5 L 77.2 8.5 L 77 8.7 L 76.8 8.7 L 76.6 8.5 L 75.4 8.5 L 75.4 14.3 L 76.6 14.3 L 76.8 14.1 L 77 14.1 L 77.2 14.3 L 78.4 14.3 L 78.4 20.9 L 77.2 20.9 L 77 21.1 L 76.8 21.1 L 76.6 20.9 L 75.4 20.9 L 75.4 26.7 L 76.6 26.7 L 76.8 26.5 L 77 26.5 L 77.2 26.7 L 78.4 26.7 L 78.4 30.2"
       id="path50" /><path
       style="fill:none;stroke:#000000;stroke-width:1"
       d="M 78.4 30.2 L 72.2 30.2 L 72.2 31.4 L 72.4 31.6 L 72.4 31.8 L 72.2 32 L 72.2 33.2 L 66 33.2 L 66 32 L 65.8 31.8 L 65.8 31.6 L 66 31.4 L 66 30.2 L 59.9 30.2 L 59.9 31.4 L 60.1 31.6 L 60.1 31.8 L 59.9 32 L 59.9 33.2 L 53.7 33.2 L 53.7 32 L 53.5 31.8 L 53.5 31.6 L 53.7 31.4 L 53.7 30.2 L 47.6 30.2 L 47.6 31.4 L 47.8 31.6 L 47.8 31.8 L 47.6 32 L 47.6 33.2 L 41.4 33.2 L 41.4 32 L 41.2 31.8 L 41.2 31.6 L 41.4 31.4 L 41.4 30.2 L 35.2 30.2"
       id="path51" /><path
       style="fill:none;stroke:#000000;stroke-width:1"
       d="M 35.2 30.2 L 35.2 26.7 L 36.4 26.7 L 36.6 26.5 L 36.8 26.5 L 37 26.7 L 38.2 26.7 L 38.2 20.9 L 37 20.9 L 36.8 21.1 L 36.6 21.1 L 36.4 20.9 L 35.2 20.9 L 35.2 14.3 L 36.4 14.3 L 36.6 14.1 L 36.8 14.1 L 37 14.3 L 38.2 14.3 L 38.2 8.5 L 37 8.5 L 36.8 8.7 L 36.6 8.7 L 36.4 8.5 L 35.2 8.5 L 35.2 5"
       id="path52" /></g></svg>
